Coordinates
version=1
nRows=7
nColumns=46
inDegrees=yes

Units are S.I. units (second, meters, Newtons, ...)
Angles are in degrees.

endheader
time	pelvis_tilt	pelvis_list	pelvis_rotation	pelvis_tx	pelvis_ty	pelvis_tz	bb_angle	bb_tx	bb_ty	bb_tz	hip_flexion_r	hip_adduction_r	hip_rotation_r	knee_angle_r	knee_angle_r_beta	ankle_angle_r	subtalar_angle_r	mtp_angle_r	crank_angle_r	hip_flexion_l	hip_adduction_l	hip_rotation_l	knee_angle_l	knee_angle_l_beta	ankle_angle_l	subtalar_angle_l	mtp_angle_l	crank_angle_l	lumbar_extension	lumbar_bending	lumbar_rotation	arm_flex_r	arm_add_r	arm_rot_r	elbow_flex_r	pro_sup_r	wrist_flex_r	wrist_dev_r	arm_flex_l	arm_add_l	arm_rot_l	elbow_flex_l	pro_sup_l	wrist_flex_l	wrist_dev_l
      5.00500000	    -31.21206814	      6.28720905	    -11.94389942	      0.29395968	      1.01255910	     -0.18731444	      0.00000000	      0.50000000	      0.00000000	      0.25000000	     98.34625374	      1.97192805	      7.97351228	    108.00807824	      1.88509658	      3.67444048	     -1.11589767	      0.00000000	      0.00000000	     36.91267917	     -7.76887061	    -11.26575688	     43.55950739	      0.76025682	     -8.99805115	     -3.39686882	      0.00000000	      0.00000000	    -33.69346617	     -7.02242848	      5.14829951	     62.51796677	    -30.70889801	     67.33694357	     69.41671461	     61.28910376	      0.00000000	      0.00000000	     43.59431062	    -25.93067094	     31.26966917	     72.29962333	     50.51174190	      0.00000000	      0.00000000
      5.01000000	    -31.49921834	      6.30130872	    -11.30328725	      0.29308296	      1.01452822	     -0.18705447	      0.00000000	      0.50000000	      0.00000000	      0.25000000	     97.43482666	      1.54764437	      7.91623543	    105.78009069	      1.84621087	      5.05862884	     -0.72100822	      0.00000000	      0.00000000	     38.90448477	     -7.78748632	    -10.23704194	     46.54531415	      0.81236898	    -11.28301044	     -4.37523534	      0.00000000	      0.00000000	    -33.79281326	     -6.80172308	      4.83726619	     62.34227346	    -30.72055693	     66.83000807	     69.58520504	     61.14596871	      0.00000000	      0.00000000	     44.08692525	    -25.85775025	     31.50044289	     72.11053794	     50.51497228	      0.00000000	      0.00000000
      5.01500000	    -31.59755012	      6.56195103	    -10.65442212	      0.29264168	      1.01653036	     -0.18676560	      0.00000000	      0.50000000	      0.00000000	      0.25000000	     96.28635277	      1.07279317	      8.14306151	    103.51436493	      1.80666649	      6.14420992	     -0.37970415	      0.00000000	      0.00000000	     40.61259444	     -7.49653594	     -9.40949081	     49.26841535	      0.85989607	    -13.65138842	     -4.96281951	      0.00000000	      0.00000000	    -33.92154847	     -7.08653218	      5.27264436	     59.38993911	    -31.16148867	     61.70615065	     70.45171388	     59.70236800	      0.00000000	      0.00000000	     46.51698499	    -25.15330973	     34.64778391	     69.90298449	     50.59992801	      0.00000000	      0.00000000
      5.02000000	    -31.77571917	      6.67085435	     -9.97216431	      0.29216134	      1.01825144	     -0.18656359	      0.00000000	      0.50000000	      0.00000000	      0.25000000	     95.05269410	      0.55779542	      8.17404483	    101.08744213	      1.76430870	      7.12353699	     -0.39223866	      0.00000000	      0.00000000	     42.45409598	     -7.30114784	     -8.44022733	     52.05412540	      0.90851588	    -15.80528742	     -5.35927455	      0.00000000	      0.00000000	    -34.07614157	     -7.32736048	      6.53014995	     56.02781130	    -33.74568598	     57.20496815	     74.26875322	     58.36392401	      0.00000000	      0.00000000	     49.11106842	    -22.99808857	     37.08319136	     67.28015487	     50.66596231	      0.00000000	      0.00000000
      5.02500000	    -31.86692976	      6.76469828	     -9.22338747	      0.29180081	      1.01989177	     -0.18643018	      0.00000000	      0.50000000	      0.00000000	      0.25000000	     93.63363388	     -0.03516426	      8.19046739	     98.57930814	      1.72053350	      8.02754781	     -0.52146675	      0.00000000	      0.00000000	     44.20253528	     -7.00074413	     -7.40777399	     54.77960752	      0.95608451	    -17.93750888	     -5.61643355	      0.00000000	      0.00000000	    -34.24315851	     -7.20184933	      5.93036938	     55.80039664	    -33.50330472	     56.81523840	     74.08210067	     58.21377978	      0.00000000	      0.00000000	     49.57458225	    -23.04193011	     37.32378068	     67.06026750	     50.66842774	      0.00000000	      0.00000000
      5.03000000	    -31.89983026	      6.88623371	     -8.43372524	      0.29166929	      1.02156325	     -0.18617089	      0.00000000	      0.50000000	      0.00000000	      0.25000000	     92.02936362	     -0.68866297	      8.20444260	     95.97452368	      1.67507144	      8.88776528	     -0.79171141	      0.00000000	      0.00000000	     45.83140031	     -6.59819667	     -6.43996976	     57.36182359	      1.00115269	    -19.96081447	     -5.78476818	      0.00000000	      0.00000000	    -34.47937337	     -7.06228342	      5.21920154	     55.47805791	    -33.03207917	     56.20431312	     73.85596341	     58.04722595	      0.00000000	      0.00000000	     50.07658869	    -23.23504230	     37.62069637	     66.82400710	     50.67111199	      0.00000000	      0.00000000
      5.03500000	    -32.06026435	      7.01657958	     -7.64099324	      0.29151402	      1.02261774	     -0.18553755	      0.00000000	      0.50000000	      0.00000000	      0.25000000	     90.49007195	     -1.26331256	      8.22477087	     93.30170966	      1.62842203	      9.52581844	     -1.21742333	      0.00000000	      0.00000000	     47.60294777	     -6.20571955	     -5.47798311	     59.94875513	      1.04630316	    -21.91232630	     -5.87297801	      0.00000000	      0.00000000	    -34.34022317	     -6.99431021	      4.22864767	     53.75667005	    -30.72177342	     52.40940680	     72.23470871	     57.05957591	      0.00000000	      0.00000000	     50.93517391	    -24.34995186	     39.64369047	     66.44155686	     50.90328046	      0.00000000	      0.00000000
